<svg width="103" height="103" viewBox="0 0 103 103" fill="none" xmlns="http://www.w3.org/2000/svg">
  <path
    d="M51.5 102C79.3402 102 102 79.3319 102 51.4814C102 23.6309 79.3029 1 51.5 1C23.6598 1 1 23.6681 1 51.5186C1 79.3691 23.6598 102 51.5 102ZM23.2498 86.6021C24.7033 79.8165 36.4059 68.4825 51.5 68.4825C66.5941 68.4825 78.2967 79.8538 79.7502 86.6021C72.0354 92.8284 62.1963 96.5939 51.5 96.5939C40.8037 96.5939 30.9646 92.8284 23.2498 86.6021ZM51.5 6.40605C76.3587 6.40605 96.5587 26.6135 96.5587 51.4814C96.5587 63.4865 91.8255 74.4105 84.148 82.5009C81.3155 75.6035 73.4889 68.5943 63.7616 65.1643C71.1782 60.914 76.1723 52.8981 76.1723 43.7638C76.1723 30.1554 65.1033 19.0823 51.5 19.0823C37.8967 19.0823 26.8277 30.1554 26.8277 43.7638C26.8277 52.8981 31.8218 60.914 39.2384 65.1643C29.5111 68.5943 21.6845 75.5663 18.852 82.5009C11.1745 74.4105 6.44133 63.4865 6.44133 51.4814C6.40406 26.6508 26.6413 6.40605 51.5 6.40605ZM51.5 63.0391C40.8782 63.0391 32.2317 54.3894 32.2317 43.7638C32.2317 33.1381 40.8782 24.4884 51.5 24.4884C62.1218 24.4884 70.7683 33.1381 70.7683 43.7638C70.731 54.4267 62.0845 63.0391 51.5 63.0391Z"
    fill="#939393" stroke="#939393" stroke-width="0.5"/>
</svg>
