<svg width="33" height="30" viewBox="0 0 33 30" fill="none" xmlns="http://www.w3.org/2000/svg">
  <g clip-path="url(#clip0)">
    <path class="likebg" opacity="0.2" fill-rule="evenodd" clip-rule="evenodd"
          d="M31.8352 15.6855C31.7745 15.6486 31.7381 15.5055 31.7624 15.4277C31.9768 14.6872 31.9849 13.9467 31.7179 13.2226C31.3418 12.2039 30.6501 11.4389 29.4044 11.263C28.8179 11.1812 28.2031 11.2303 27.6045 11.2303C27.1758 11.2262 26.743 11.2262 26.3022 11.2303C26.3022 11.2384 26.3022 11.2425 26.3022 11.2507C25.5337 11.2466 24.6803 11.2425 24.4053 11.2384C22.6135 11.2057 24.6641 8.93516 24.3284 3.22399C24.1383 -0.044791 21.1696 -1.07166 20.2069 1.30118C19.936 1.96803 19.7499 2.6717 19.5719 3.37536C18.8156 6.37004 17.3151 9.5611 14.7589 11.2998C13.7113 12.0117 12.599 12.3635 11.414 12.4412H11.2967C10.9569 12.4412 10.6819 12.7194 10.6819 13.0631V27.2714C10.6819 27.6151 10.9569 27.8933 11.2967 27.8933H11.414C15.6406 28.3392 15.592 29.9552 20.2798 29.9961C21.7439 30.0084 23.2081 30.0084 24.6762 30.0043C25.5013 30.0043 26.3264 30.0002 27.1515 30.0084C28.2598 30.0207 29.0768 29.5788 29.639 28.7483C30.2376 27.8565 30.3468 26.8951 30.0758 25.8927C30.0394 25.7536 30.0313 25.6718 30.1971 25.59C31.0667 25.1727 31.548 24.4895 31.7907 23.6549C31.993 22.9553 31.9606 22.2517 31.7422 21.6012C34.0921 19.7684 32.5713 16.1191 31.8352 15.6855Z"
          fill="white"/>
    <path fill-rule="evenodd" clip-rule="evenodd"
          d="M0 27.2021C0 27.8444 0.517711 28.3681 1.15272 28.3681H8.46538C9.10038 28.3681 9.61809 27.8444 9.61809 27.2021V13.1206C9.61809 12.4783 9.10038 11.9546 8.46538 11.9546H1.15272C0.517711 11.9546 0 12.4823 0 13.1206V27.2021Z"
          fill="#5639F5"/>
  </g>
  <defs>
    <clipPath id="clip0">
      <rect width="33" height="30" fill="white"/>
    </clipPath>
  </defs>
</svg>
