<svg width="50" height="59" viewBox="0 -3 50 65" fill="none" xmlns="http://www.w3.org/2000/svg">
  <path
    d="M9.51728 9.71484L9.51768 9.71442C14.903 4.1505 22.0332 1.39421 29.1137 1.39421C36.1066 1.39421 43.0994 4.07038 48.4736 9.42339L37.0755 21.0915C36.0814 20.1448 34.8975 19.3471 33.5699 18.7934C32.2021 18.2229 30.683 17.912 29.1137 17.912C25.923 17.912 23.0359 19.2086 20.9095 21.3853C18.8336 23.5104 17.5178 26.5157 17.5178 29.7797C17.5178 33.0437 18.8336 36.0489 20.9095 38.174C22.9855 40.2992 25.9226 41.6473 29.1137 41.6473C30.683 41.6473 32.2021 41.3364 33.5699 40.7659C34.8954 40.2131 36.0808 39.4639 37.0777 38.4701L48.474 50.1364C43.0998 55.54 36.1071 58.2159 29.1147 58.1651H29.1137C22.0335 58.1651 14.9531 55.409 9.51728 49.8445L9.51688 49.8441C4.08154 44.331 1.38798 37.0306 1.38798 29.7797C1.38798 22.5291 4.08133 15.2795 9.51728 9.71484ZM37.1677 37.8455L37.0772 37.7528L36.9878 37.8466C35.0076 39.9243 32.1848 41.1925 29.1126 41.2434C22.9736 41.2428 17.9682 36.1227 17.9682 29.8309C17.9682 23.5388 22.9742 18.4184 29.1137 18.4184C32.1839 18.4184 34.9573 19.6855 36.9888 21.7651L37.0785 21.8568L37.1679 21.7649L49.0896 9.50954L49.1746 9.42219L49.0894 9.33503C38.0704 -1.94501 20.1571 -1.94501 9.13808 9.33503C-1.87936 20.6134 -1.87936 38.9459 9.13808 50.2243C20.1571 61.5043 38.0704 61.5043 49.0894 50.2243L49.1747 50.1369L49.0894 50.0496L37.1677 37.8455Z"
    fill="#fff" stroke="#fff" stroke-width="5"/>
</svg>
